# xmcd
#
# Track frame offsets:
#	150
#	14030
#	35543
#	50099
#	65424
#	78062
#	95196
#	118841
#	139737
#	158712
#
# Disc length: 2302 seconds
#
# Revision: 2
# Processed by: cddbd v1.5.1PL2 Copyright (c) Steve Scherf et al.
# Submitted via: audiograbber 1.83.01
#
DISCID=8908fc0a
DTITLE=Attic Toys - Weekend 05.05.05
DYEAR=2006
DGENRE=Punk Rock
TTITLE0=Weekend Song
TTITLE1=Come On Little Lady
TTITLE2=It's Never Too Late
TTITLE3=All Over The World
TTITLE4=Didn't Drink And Drive
TTITLE5=Can't Live Without You
TTITLE6=Miss You
TTITLE7=Burn Out
TTITLE8=Six Silent Tears
TTITLE9=Attic Toys
EXTD=
EXTT0=
EXTT1=
EXTT2=
EXTT3=
EXTT4=
EXTT5=
EXTT6=
EXTT7=
EXTT8=
EXTT9=
PLAYORDER=
